<?xml version="1.0"?>
<svg xmlns="http://www.w3.org/2000/svg" xmlns:xlink="http://www.w3.org/1999/xlink" xmlns:svgjs="http://svgjs.com/svgjs" version="1.1" width="512" height="512" x="0" y="0" viewBox="0 0 512 512" style="enable-background:new 0 0 512 512" xml:space="preserve" class=""><g>
<g xmlns="http://www.w3.org/2000/svg">
	<path style="" d="M501.333,96H138.667C132.776,96,128,91.224,128,85.333c0-5.891,4.776-10.667,10.667-10.667h362.667   c5.891,0,10.667,4.776,10.667,10.667C512,91.224,507.224,96,501.333,96z" fill="#4c6774" data-original="#455a64" class=""/>
	<path style="" d="M501.333,266.667H138.667c-5.891,0-10.667-4.776-10.667-10.667c0-5.891,4.776-10.667,10.667-10.667   h362.667c5.891,0,10.667,4.776,10.667,10.667C512,261.891,507.224,266.667,501.333,266.667z" fill="#4c6774" data-original="#455a64" class=""/>
	<path style="" d="M501.333,437.333H138.667c-5.891,0-10.667-4.776-10.667-10.667c0-5.891,4.776-10.667,10.667-10.667   h362.667c5.891,0,10.667,4.776,10.667,10.667C512,432.558,507.224,437.333,501.333,437.333z" fill="#4c6774" data-original="#455a64" class=""/>
</g>
<g xmlns="http://www.w3.org/2000/svg">
	<circle style="" cx="53.333" cy="256" r="53.333" fill="#597082" data-original="#2196f3" class=""/>
	<circle style="" cx="53.333" cy="426.667" r="53.333" fill="#597082" data-original="#2196f3" class=""/>
	<circle style="" cx="53.333" cy="85.333" r="53.333" fill="#597082" data-original="#2196f3" class=""/>
</g>
<g xmlns="http://www.w3.org/2000/svg">
</g>
<g xmlns="http://www.w3.org/2000/svg">
</g>
<g xmlns="http://www.w3.org/2000/svg">
</g>
<g xmlns="http://www.w3.org/2000/svg">
</g>
<g xmlns="http://www.w3.org/2000/svg">
</g>
<g xmlns="http://www.w3.org/2000/svg">
</g>
<g xmlns="http://www.w3.org/2000/svg">
</g>
<g xmlns="http://www.w3.org/2000/svg">
</g>
<g xmlns="http://www.w3.org/2000/svg">
</g>
<g xmlns="http://www.w3.org/2000/svg">
</g>
<g xmlns="http://www.w3.org/2000/svg">
</g>
<g xmlns="http://www.w3.org/2000/svg">
</g>
<g xmlns="http://www.w3.org/2000/svg">
</g>
<g xmlns="http://www.w3.org/2000/svg">
</g>
<g xmlns="http://www.w3.org/2000/svg">
</g>
</g></svg>
